<svg width="200" height="200" viewBox="0 0 200 200" fill="none" xmlns="http://www.w3.org/2000/svg">
<g clip-path="url(#clip0_1412_1437)">
<path d="M197.007 124.192C183.649 177.764 129.384 210.367 75.8001 197.008C22.2382 183.652 -10.3684 129.389 2.99551 75.8206C16.3469 22.2425 70.6121 -10.3638 124.18 2.99249C177.761 16.3487 210.364 70.6175 197.007 124.192Z" fill="white"/>
<path d="M197.007 124.192C183.649 177.764 129.384 210.367 75.8001 197.008C22.2382 183.652 -10.3684 129.389 2.99551 75.8206C16.3469 22.2425 70.6121 -10.3638 124.18 2.99249C177.761 16.3487 210.364 70.6175 197.007 124.192Z" fill="url(#paint0_linear_1412_1437)"/>
<path fill-rule="evenodd" clip-rule="evenodd" d="M55.0554 161.097C36.7261 147.319 24.8337 125.299 24.8337 100.5C24.8337 58.7552 58.5022 24.8863 100 24.8863C134.262 24.8863 171.674 45.4832 180.713 77.0329C170.601 41.7863 138.302 16 100 16C53.6174 16 16 53.8413 16 100.5C16 147.159 53.6174 185 100 185C146.383 185 184 147.159 184 100.5V96.0454H179.389C179.252 96.0454 179.047 96.0454 178.773 96.0454C178.225 96.0454 177.449 96.0224 176.445 95.9765C174.459 95.9076 171.72 95.7698 168.638 95.4943C162.338 94.9432 155.148 93.864 150.263 91.8893C142.388 88.7205 137.937 84.5414 132.87 79.6276L132.573 79.352C127.483 74.4382 121.776 68.9043 111.847 64.2201C102.077 59.6048 91.2804 60.3395 83.3598 61.9928C79.3424 62.8194 75.8728 63.9216 73.4304 64.8171C72.1978 65.2534 71.2163 65.6667 70.5315 65.9423C66.537 67.6414 62.6565 69.6391 58.7533 71.4991C58.7533 71.4991 66.4457 73.6116 70.2348 74.8056C70.3717 74.8515 70.5772 74.9204 70.8739 75.0122C71.4446 75.1959 72.2663 75.4944 73.2478 75.9077C75.2565 76.7344 77.8815 77.9514 80.4837 79.6505C84.5924 82.2912 87.9935 85.6436 89.3859 89.7308C80.6891 90.8789 72.5174 94.7366 66.4 98.3416C62.7022 100.523 59.6207 102.727 57.4522 104.358C56.3793 105.184 55.512 105.873 54.9185 106.355C54.4163 106.769 46.5641 113.726 46.5641 113.726C46.5641 113.726 56.6989 114.805 61.6978 115.816C65.0304 116.482 69.5043 117.584 74.2065 119.214C78.9087 120.867 83.6565 123.026 87.6054 125.804C91.5544 128.582 94.4533 131.774 95.8685 135.448C100.023 146.148 95.937 156.55 87.7424 162.405C79.6391 168.192 67.3359 169.57 55.0326 161.074L55.0554 161.097ZM83.725 174.323C87.0348 173.243 90.1163 171.659 92.9011 169.684C104.04 161.717 109.907 147.113 104.132 132.233C101.849 126.378 97.512 121.924 92.6957 118.525C87.8565 115.127 82.3098 112.647 77.1511 110.833C73.7728 109.639 70.4859 108.72 67.6326 108.032C68.6598 107.366 69.7326 106.677 70.8967 105.988C77.6989 101.97 86.2815 98.2727 94.4989 98.2727C106.893 98.2727 116.115 102.107 124.926 106.195C125.725 106.562 126.524 106.952 127.346 107.32C135.221 111.04 143.484 114.943 153.093 114.943C162.703 114.943 169.665 112.302 174.664 109.547C170.213 147.021 138.508 176.091 100.046 176.091C94.4533 176.091 88.9978 175.471 83.7707 174.323H83.725ZM165.077 104.105C161.767 105.23 157.75 106.057 153.071 106.057C145.538 106.057 139.055 103.026 130.838 99.1682C130.108 98.8238 129.377 98.4794 128.624 98.1349C120.384 94.3003 110.865 90.236 98.4707 89.5012C96.8044 81.2579 90.5957 75.6092 85.2543 72.1649C84.6609 71.7746 84.0674 71.4072 83.4739 71.0628C83.9989 70.948 84.5467 70.8102 85.1174 70.6954C92.2848 69.2029 100.822 68.8355 108.058 72.2798C116.64 76.344 121.502 81.0283 126.547 85.8962L126.729 86.0569C131.911 91.0626 137.412 96.3209 146.976 100.179C152.295 102.314 159.188 103.462 165.077 104.105Z" fill="black" fill-opacity="0.1"/>
<path d="M144.092 85.7531C146.082 72.4468 135.951 65.2937 122.098 60.5218L126.592 42.4968L115.62 39.7624L111.245 57.3124C108.36 56.5937 105.398 55.9156 102.454 55.2437L106.86 37.5781L95.8947 34.8437L91.3978 52.8624C89.0103 52.3187 86.6666 51.7812 84.3916 51.2156L84.4041 51.1593L69.2728 47.3812L66.3541 59.0999C66.3541 59.0999 74.4947 60.9656 74.3228 61.0812C78.7666 62.1906 79.5697 65.1312 79.4353 67.4624L74.3166 87.9968C74.6228 88.0749 75.0197 88.1874 75.4572 88.3624C75.0916 88.2718 74.701 88.1718 74.2978 88.0749L67.1228 116.841C66.5791 118.191 65.201 120.216 62.0947 119.447C62.2041 119.606 54.1197 117.456 54.1197 117.456L48.6728 130.016L62.951 133.575C65.6072 134.241 68.2103 134.937 70.7728 135.594L66.2322 153.825L77.1916 156.559L81.6885 138.522C84.6822 139.334 87.5885 140.084 90.4322 140.791L85.951 158.744L96.9228 161.478L101.463 143.281C120.173 146.822 134.242 145.394 140.163 128.472C144.935 114.847 139.926 106.987 130.082 101.862C137.251 100.209 142.651 95.4937 144.092 85.7531ZM119.023 120.906C115.632 134.531 92.6916 127.166 85.2541 125.319L91.2791 101.166C98.7166 103.022 122.567 106.697 119.023 120.906ZM122.417 85.5562C119.323 97.9499 100.229 91.6531 94.0353 90.1093L99.4978 68.2031C105.692 69.7468 125.638 72.6281 122.417 85.5562Z" fill="white"/>
<path d="M8.81621 77.2712L8.81634 77.2707C21.3666 26.9081 72.3756 -3.74129 122.729 8.81335L122.729 8.81338C173.095 21.368 203.742 72.3799 191.186 122.74C178.63 173.096 127.621 203.743 77.2519 191.185C26.9042 178.631 -3.74572 127.625 8.81621 77.2712Z" stroke="white" stroke-width="4"/>
</g>
<defs>
<linearGradient id="paint0_linear_1412_1437" x1="-1.79348" y1="101.849" x2="201.793" y2="98.1261" gradientUnits="userSpaceOnUse">
<stop stop-color="#29CCB9"/>
<stop offset="0.49" stop-color="#0091FF"/>
<stop offset="1" stop-color="#FF66B7"/>
</linearGradient>
<clipPath id="clip0_1412_1437">
<rect width="200" height="200" fill="white"/>
</clipPath>
</defs>
</svg>
